<svg id="Layer_1" data-name="Layer 1" xmlns="http://www.w3.org/2000/svg" viewBox="0 0 512 485.44"><defs><style>.cls-1{fill:#ffb600;}</style></defs><path class="cls-1" d="M0,248.84c.16-1.3.39-2.6.46-3.9q4.14-81.8,56.87-144.46C85.34,67.13,120,43,160.85,27.93a235.82,235.82,0,0,1,42.28-11.26q12.08-2.06,24.3-2.91a239.34,239.34,0,0,1,31.46-.13A235.89,235.89,0,0,1,361.23,43.94Q427.67,81.5,461.8,149.87c3.22,6.44,6.07,13,8.65,19.77.17.43.31.88.5,1.42H387.48c-.19-.29-.41-.61-.62-.94-19-31-45.58-53-79.37-66.34a166.21,166.21,0,0,0-36.43-9.65,177.85,177.85,0,0,0-30.32-2c-25.93.56-50.62,6.32-73.67,18.35-35.32,18.42-60.41,46.24-75.33,83.17a159.3,159.3,0,0,0-9.86,37.18,168.35,168.35,0,0,0-1.71,30.34c1.34,37.33,13,71.1,35.56,100.9a162,162,0,0,0,67.63,52.54,155.75,155.75,0,0,0,36.93,10.27,157.36,157.36,0,0,0,96.42-16c29.46-15.26,52.6-37.32,69.92-65.56A2.42,2.42,0,0,1,389,342q40.13.06,80.23,0H471c-.22.65-.37,1.09-.54,1.53a238.78,238.78,0,0,1-44,72.42A242.87,242.87,0,0,1,348.11,475a239.47,239.47,0,0,1-57.05,18.89,245.35,245.35,0,0,1-27.89,3.84c-3.55.28-7.1.43-10.65.65-.48,0-1,.14-1.42.21H237.4c-.47-.07-1-.17-1.42-.21-5.95-.45-11.91-.8-17.85-1.35A210.66,210.66,0,0,1,192.68,493a239.92,239.92,0,0,1-58-20.58,244.14,244.14,0,0,1-94.26-83.67,237,237,0,0,1-40-122c-.06-1.3-.29-2.6-.45-3.9Z" transform="translate(0 -13.17)"/><path class="cls-1" d="M322.65,287.26a84.91,84.91,0,1,1,.56-60H511.94l.06.23c-.29.24-.57.49-.88.7q-41,29.22-82,58.46a3.74,3.74,0,0,1-2.34.61H322.65Z" transform="translate(0 -13.17)"/></svg>